<?xml version="1.0" encoding="UTF-8"?>
<svg id="Layer_1" xmlns="http://www.w3.org/2000/svg" version="1.1" viewBox="0 0 819.2 688.83">
  <!-- Generator: Adobe Illustrator 30.5.1, SVG Export Plug-In . SVG Version: 2.1.4 Build 3)  -->
  <defs>
    <style>
      .st0 {
        fill: none;
      }

      .st1 {
        fill: #222;
      }
    </style>
  </defs>
  <g>
    <g>
      <polygon class="st1" points="511.95 0 504.77 0 257.24 488.15 370.73 488.15 565.11 104.81 511.95 0"/>
      <polygon class="st1" points="753.65 15.18 640.06 15.18 484.04 322.8 567.9 488.15 681.49 488.15 597.63 322.8 753.65 15.18"/>
    </g>
    <polygon class="st1" points="364.58 216.66 254.71 0 247.52 0 0 488.15 113.49 488.15 247.29 224.28 254.94 224.28 307.84 328.57 364.58 216.66"/>
  </g>
  <g>
    <path class="st1" d="M224.85,547.7h29.23l24.71,54.53,25.54-54.53h29.22l19.13,140.18h-37.3l-8.2-57.62h-.36l-28.04,58.57-28.04-58.57h-.36l-8.2,57.62h-37.42l20.08-140.18h0Z"/>
    <path class="st1" d="M403.29,547.7h41.22l47.16,140.18h-39.56l-4.99-15.56h-48.23l-5.11,15.56h-39.56l49.06-140.18h0ZM423.12,598.79h-.36l-12.59,38.97h26.02l-13.07-38.97h0Z"/>
    <path class="st1" d="M573.88,617.08l40.51,70.8h-42.77l-18.89-33.26-18.77,33.26h-42.89l40.27-70.8-39.56-69.38h42.89l18.06,31.72,17.94-31.72h42.77l-39.56,69.38Z"/>
  </g>
  <polygon class="st0" points="454.62 216.66 564.49 0 571.68 0 819.2 488.15 705.71 488.15 571.91 224.28 564.26 224.28 511.36 328.57 454.62 216.66"/>
</svg>
