<?xml version="1.0" encoding="UTF-8"?>
<svg id="Layer_1" xmlns="http://www.w3.org/2000/svg" version="1.1" xmlns:xlink="http://www.w3.org/1999/xlink" viewBox="0 0 55 55">
  <!-- Generator: Adobe Illustrator 30.5.1, SVG Export Plug-In . SVG Version: 2.1.4 Build 3)  -->
  <defs>
    <style>
      .st0 {
        opacity: .5;
      }

      .st0, .st1, .st2 {
        stroke-miterlimit: 10;
        stroke-width: 4px;
      }

      .st0, .st3, .st2 {
        fill: none;
      }

      .st0, .st2 {
        stroke: #196ebf;
      }

      .st1 {
        stroke: #363636;
      }

      .st1, .st4 {
        fill: #fff;
      }

      .st5 {
        fill: #363636;
      }

      .st6 {
        fill: #196ebf;
      }

      .st2 {
        opacity: .75;
      }

      .st7 {
        clip-path: url(#clippath);
      }
    </style>
    <clipPath id="clippath">
      <rect class="st3" x="0" y="7" width="48" height="48"/>
    </clipPath>
  </defs>
  <g class="st7">
    <g>
      <g>
        <circle class="st0" cx="32" cy="23" r="21"/>
        <circle class="st2" cx="32" cy="23" r="14"/>
        <circle class="st6" cx="32" cy="23" r="9"/>
        <path class="st1" d="M5.94,38.09c-2.25-.8-3.38-1.2-3.71-1.81-.29-.53-.3-1.16-.04-1.7.31-.62,1.42-1.07,3.63-1.97l20.89-8.45c2.18-.88,3.27-1.33,3.96-1.1.6.2,1.07.67,1.26,1.26.23.69-.22,1.78-1.1,3.96l-8.45,20.89c-.9,2.22-1.35,3.32-1.97,3.63-.54.27-1.17.25-1.7-.04-.61-.34-1.01-1.46-1.81-3.71l-2.45-6.9c-.16-.44-.23-.66-.36-.84-.11-.16-.25-.3-.42-.42-.18-.13-.4-.21-.84-.36l-6.9-2.45Z"/>
      </g>
      <g>
        <rect class="st5" x="32" y="39" width="16" height="16" rx="2.67" ry="2.67"/>
        <g id="Layer-1">
          <g>
            <path class="st4" d="M42.3,42.85h-.12l-4.2,8.29h1.93l3.3-6.51-.9-1.79h0Z"/>
            <path class="st4" d="M46.4,43.11h-1.93l-2.65,5.23,1.42,2.81h1.93l-1.42-2.81,2.65-5.23Z"/>
            <path class="st4" d="M37.8,42.85l-4.2,8.3h1.93l2.27-4.49h.13l.9,1.77.97-1.9-1.87-3.68h-.12,0Z"/>
          </g>
        </g>
      </g>
    </g>
  </g>
</svg>